<svg width="24" height="24" viewBox="0 0 24 24" fill="none" xmlns="http://www.w3.org/2000/svg">
<path d="M22.9 12.2C22 8.8 17.8 7.8 14.2 7.9C14 7.5 13.8 7 13.6 6.6C12.3 3.6 10.3 2 8 2C3 2 1 9.1 1 12.9C1 16 2.3 17.7 3.4 18.5C4.4 19.3 5.5 19.7 6.9 19.9C7.3 20.4 7.8 20.8 8.3 21.1C9.3 21.7 10.4 22 11.7 22C12.5 22 13.3 21.9 14.1 21.7C16.2 21.1 18.6 19.9 20.3 18.4C22.5 16.5 23.4 14.3 22.9 12.2ZM18.9 16.9C17.5 18.1 15.3 19.3 13.5 19.8C12.1 20.2 11 20.2 10 19.8C9.8 19.7 9.5 19.6 9.3 19.5C9.1 19.4 8.9 19.2 8.7 19C8.4 18.7 8.1 18.4 7.9 18C7.6 17.5 7.4 17 7.2 16.4C6.8 15 6.9 13.8 7.5 12.8C8.1 11.7 9.3 10.9 11 10.4C11.5 10.3 12.1 10.2 12.6 10.1C12.9 10.1 13.3 10 13.6 10C13.9 10 14.3 10 14.6 10C17.5 10 20.3 10.8 20.9 12.8C21.4 14.4 20.1 15.9 18.9 16.9ZM4.6 17C3.5 16.1 3 14.7 3 12.9C3 9.8 4.7 4 8 4C10 4 11.2 6.1 11.8 7.4C11.9 7.6 12 7.9 12.1 8.2C11.5 8.3 11 8.4 10.5 8.5C8.3 9.1 6.7 10.3 5.8 11.9C5 13.4 4.8 15.1 5.3 17C5.3 17.2 5.4 17.4 5.5 17.5C5.2 17.4 4.9 17.2 4.6 17Z" fill="#A48910"/>
<path d="M14.8004 11C14.5004 11 14.2004 11 13.9004 11C13.9004 11 13.8004 11 13.7004 11C13.2004 11.1 12.9004 11.5 12.9004 12C12.9004 12.5 13.3004 13 13.9004 13C14.1004 13 14.5004 13 14.9004 13C15.7004 13 16.7004 13.2 17.2004 13.7C17.4004 13.9 17.6004 14 17.9004 14C18.1004 14 18.4004 13.9 18.6004 13.7C19.0004 13.3 19.0004 12.7 18.6004 12.3C17.7004 11.3 16.0004 11.1 14.8004 11Z" fill="#A48910"/>
</svg>
