<svg width="24" height="24" viewBox="0 0 24 24" fill="none" xmlns="http://www.w3.org/2000/svg">
<path fill-rule="evenodd" clip-rule="evenodd" d="M3.61219 4.30481C5.47161 2.76497 8.29817 2 12.2 2C16.3236 2 19.1845 3.02355 20.6324 4.22533C22.4628 5.6945 23 7.85471 23 10V16C23 16.5272 22.8199 17.0443 22.4321 17.4321C22.0443 17.8199 21.5272 18 21 18V16.0403C20.9967 16.0456 20.9952 16.0493 20.9948 16.0504C20.9937 16.0533 21 16.0387 21 16V13H19C17.5296 13 16.4874 13.0336 15.6982 13.6015C15.5454 13.7191 15.3852 13.8452 15.2179 13.9767C14.0603 14.887 12.5666 16.0616 10.8904 16.5569C9.12384 17.1075 7.0884 17.2296 5.03755 16.432L5.0301 16.4291L5.0227 16.4261C1.84981 15.1334 1 12.4914 1 10.6C1 8.10818 1.71201 5.8784 3.61219 4.30481ZM21 11V10C21 8.14831 20.5387 6.71158 19.3753 5.78087L19.3675 5.77462L19.3598 5.76822C18.4053 4.97279 16.069 4 12.2 4C8.50183 4 6.22838 4.73503 4.88781 5.84519C3.58799 6.92161 3 8.49182 3 10.6C3 11.9071 3.54897 13.6627 5.76989 14.5709C7.31355 15.169 8.87238 15.0922 10.3017 14.6455L10.3098 14.643L10.3178 14.6406C11.5975 14.2643 12.757 13.3588 13.9496 12.4275C14.1289 12.2875 14.309 12.1469 14.4903 12.0074L14.501 11.9992L14.5118 11.9913C15.8781 10.9976 17.5691 10.9989 18.8769 10.9999C18.9183 11 18.9594 11 19 11H21Z" fill="#A48910"/>
<path fill-rule="evenodd" clip-rule="evenodd" d="M1 15.7004V10.4004H3V15.7004H1Z" fill="#A48910"/>
<path fill-rule="evenodd" clip-rule="evenodd" d="M8.5 9C7.45181 9 7 9.64441 7 10C7 10.3556 7.45181 11 8.5 11C9.54819 11 10 10.3556 10 10C10 9.64441 9.54819 9 8.5 9ZM5 10C5 8.14645 6.78677 7 8.5 7C10.2132 7 12 8.14645 12 10C12 11.8536 10.2132 13 8.5 13C6.78677 13 5 11.8536 5 10Z" fill="#A48910"/>
<path fill-rule="evenodd" clip-rule="evenodd" d="M3.61219 4.30481C5.47161 2.76497 8.29817 2 12.2 2V4C8.50183 4 6.22838 4.73503 4.88781 5.84519C3.58799 6.92161 3 8.49182 3 10.6C3 11.9071 3.54897 13.6627 5.76989 14.5709C7.31355 15.169 8.87238 15.0922 10.3017 14.6455L10.3098 14.643L10.3178 14.6406C11.5975 14.2643 12.757 13.3588 13.9496 12.4275C14.1289 12.2875 14.309 12.1469 14.4903 12.0074L14.501 11.9992L14.5118 11.9913C15.8781 10.9976 17.5691 10.9989 18.8769 10.9999C18.9183 11 18.9594 11 19 11H22V13H19C17.5296 13 16.4874 13.0336 15.6982 13.6015C15.5454 13.7191 15.3852 13.8452 15.2179 13.9767C14.0603 14.887 12.5666 16.0616 10.8904 16.5569C9.12384 17.1075 7.0884 17.2296 5.03755 16.432L5.0301 16.4291L5.0227 16.4261C1.84981 15.1334 1 12.4914 1 10.6C1 8.10818 1.71201 5.8784 3.61219 4.30481Z" fill="#A48910"/>
<path fill-rule="evenodd" clip-rule="evenodd" d="M5.0227 21.4257C1.84981 20.133 1 17.491 1 15.5996H3C3 16.9068 3.54897 18.6623 5.76991 19.5705C7.31356 20.1686 8.87238 20.0918 10.3017 19.6451L10.3098 19.6426L10.3178 19.6402C11.5975 19.2639 12.757 18.3584 13.9496 17.4271C14.1289 17.2871 14.309 17.1465 14.4903 17.007L14.501 16.9988L14.5118 16.9909C15.8781 15.9972 17.5691 15.9985 18.8769 15.9995C18.9183 15.9996 18.9594 15.9996 19 15.9996H21V17.9996H19C17.5296 17.9996 16.4875 18.0332 15.6982 18.6011C15.5454 18.7187 15.3852 18.8448 15.2179 18.9763C14.0603 19.8866 12.5666 21.0612 10.8904 21.5565C9.12387 22.1071 7.08842 22.2292 5.03755 21.4316L5.0301 21.4287L5.0227 21.4257Z" fill="#A48910"/>
</svg>
