<svg width="24" height="24" viewBox="0 0 24 24" fill="none" xmlns="http://www.w3.org/2000/svg">
<path d="M12.7998 12.3C12.4998 11.9 11.7998 11.8 11.3998 12.1L10.9998 12.4V10.7L13.5998 8.7C13.9998 8.4 14.0998 7.7 13.7998 7.3C13.4998 6.9 12.7998 6.8 12.3998 7.1L10.9998 8.3V6C10.9998 5.4 10.5998 5 9.99982 5C9.39982 5 8.99982 5.4 8.99982 6V8.2L7.59982 7.2C7.19982 6.9 6.49982 7 6.19982 7.4C5.89982 7.8 5.99982 8.5 6.39982 8.8L8.99982 10.7V12.5L8.59982 12.2C8.19982 11.9 7.49982 12 7.19982 12.4C6.89982 12.8 6.99982 13.5 7.39982 13.8L8.99982 15V17C8.99982 17.6 9.39982 18 9.99982 18C10.5998 18 10.9998 17.6 10.9998 17V15L12.5998 13.7C13.0998 13.4 13.0998 12.7 12.7998 12.3Z" fill="#A48910"/>
<path d="M22 8C22 6.1 21 4.3 19.5 3.5C18.5 1.8 17.2 1 15.5 1C14.1 1 13.3 1.4 12.7 1.9C11.9 1.3 11 1 10 1C8.5 1 7 1.8 6.2 3.1C3.8 3.4 2 5.5 2 8C2 9.3 2.5 10.5 3.3 11.4C3.1 11.9 3 12.4 3 13C3 14.8 3.8 15.6 5.7 17.5L6.5 20.3C6.9 21.9 8.4 23 10 23C10.7 23 11.3 22.8 11.9 22.4C12.5 22.8 13.2 23 14 23C15.7 23 17.1 21.9 17.5 20.4L17.8 19.4L18.3 19C19.9 17.6 21 16.6 21 14.4C21 13.9 20.9 13.2 20.6 12.5C21.6 11.1 22 9.3 22 8ZM10 21C9.3 21 8.6 20.5 8.4 19.8L7.4 16.5L7.2 16.3C5.3 14.3 5 14 5 13C5 12.6 5.1 12.2 5.4 11.8L6 11L5.2 10.4C4.4 9.8 4 8.9 4 8C4 6.4 5.3 5.1 6.9 5H7.5L7.8 4.5C8.2 3.6 9 3 10 3C11 3 11.8 3.6 12.3 4.4L12.5 5H13.1C14.7 5.1 16 6.4 16 8C16 8.9 15.6 9.8 14.8 10.4L14 11L14.6 11.8C14.9 12.2 15 12.6 15 13C15 14 14.7 14.3 12.7 16.3L12.5 16.5L11.6 19.8C11.4 20.5 10.7 21 10 21ZM18.7 11.5L18.1 12L18.6 12.7C18.9 13.2 19 13.8 19 14.3C19 15.6 18.5 16 17 17.4L16.1 18.2L15.6 19.8C15.4 20.5 14.7 21 14 21C13.8 21 13.5 21 13.3 20.9C13.4 20.7 13.5 20.5 13.5 20.4L14.3 17.6C16.2 15.7 17 14.9 17 13.1C17 12.5 16.9 12 16.7 11.5C17.5 10.5 18 9.3 18 8C18 5.7 16.4 3.8 14.3 3.2C14.5 3.1 14.9 3 15.5 3C16.5 3 17.3 3.5 17.9 4.7L18 5L18.3 5.1C19.3 5.6 20 6.8 20 8C20 9.1 19.6 10.7 18.7 11.5Z" fill="#A48910"/>
</svg>
